<?xml version="1.0" encoding="utf-8"?>
<!-- Generator: Adobe Illustrator 24.1.3, SVG Export Plug-In . SVG Version: 6.00 Build 0)  -->
<svg version="1.1" id="Capa_1" xmlns="http://www.w3.org/2000/svg" xmlns:xlink="http://www.w3.org/1999/xlink" x="0px" y="0px"
	 viewBox="0 0 24 24" style="enable-background:new 0 0 24 24;" xml:space="preserve">
<style type="text/css">
	.st0{fill-rule:evenodd;clip-rule:evenodd;fill:#2C3C9D;}
</style>
<path class="st0" d="M12,2c5.5,0,10,4.5,10,10c0,5-3.7,9.1-8.4,9.9v-7h2.3l0,0l0.4-2.9l0,0h-2.8v-1.9c0-0.8,0.4-1.5,1.6-1.6
	c0,0,0,0,0.1,0l0,0h1.3l0,0V6.1c0,0-1-0.2-2-0.2c-0.1,0-0.1,0-0.2,0l0,0c-2.3,0-3.8,1.4-3.8,3.9V12H7.9l0,0v2.9l0,0h2.5v7
	C5.7,21.1,2,17,2,12C2,6.5,6.5,2,12,2z"/>
</svg>
